<svg width="60" height="40" viewBox="0 0 60 40" fill="none" xmlns="http://www.w3.org/2000/svg">
<path d="M22.875 35H19.125C18.4688 35 18 35.5625 18 36.125V39.875C18 40.5312 18.4688 41 19.125 41H22.875C23.4375 41 24 40.5312 24 39.875V36.125C24 35.5625 23.4375 35 22.875 35ZM22.875 17H19.125C18.4688 17 18 17.5625 18 18.125V21.875C18 22.5312 18.4688 23 19.125 23H22.875C23.4375 23 24 22.5312 24 21.875V18.125C24 17.5625 23.4375 17 22.875 17ZM13.875 17H10.125C9.46875 17 9 17.5625 9 18.125V21.875C9 22.5312 9.46875 23 10.125 23H13.875C14.4375 23 15 22.5312 15 21.875V18.125C15 17.5625 14.4375 17 13.875 17ZM13.875 35H10.125C9.46875 35 9 35.5625 9 36.125V39.875C9 40.5312 9.46875 41 10.125 41H13.875C14.4375 41 15 40.5312 15 39.875V36.125C15 35.5625 14.4375 35 13.875 35ZM13.875 26H10.125C9.46875 26 9 26.5625 9 27.125V30.875C9 31.5312 9.46875 32 10.125 32H13.875C14.4375 32 15 31.5312 15 30.875V27.125C15 26.5625 14.4375 26 13.875 26ZM22.875 26H19.125C18.4688 26 18 26.5625 18 27.125V30.875C18 31.5312 18.4688 32 19.125 32H22.875C23.4375 32 24 31.5312 24 30.875V27.125C24 26.5625 23.4375 26 22.875 26ZM49.875 35H46.125C45.4688 35 45 35.5625 45 36.125V39.875C45 40.5312 45.4688 41 46.125 41H49.875C50.4375 41 51 40.5312 51 39.875V36.125C51 35.5625 50.4375 35 49.875 35ZM49.875 26H46.125C45.4688 26 45 26.5625 45 27.125V30.875C45 31.5312 45.4688 32 46.125 32H49.875C50.4375 32 51 31.5312 51 30.875V27.125C51 26.5625 50.4375 26 49.875 26ZM57.75 17H48V1.25C48 0.03125 46.9688 -1 45.75 -1H26.25C24.9375 -1 24 0.03125 24 1.25V8H21V0.5C21 -0.25 20.25 -1 19.5 -1H18C17.1562 -1 16.5 -0.25 16.5 0.5V8H10.5V0.5C10.5 -0.25 9.75 -1 9 -1H7.5C6.65625 -1 6 -0.25 6 0.5V8H2.25C0.9375 8 0 9.03125 0 10.25V45.5C0 46.3438 0.65625 47 1.5 47H3C3.75 47 4.5 46.3438 4.5 45.5V12.5H28.5V3.5H43.5V21.5H55.5V45.5C55.5 46.3438 56.1562 47 57 47H58.5C59.25 47 60 46.3438 60 45.5V19.25C60 18.0312 58.9688 17 57.75 17ZM37.875 8H34.125C33.4688 8 33 8.5625 33 9.125V12.875C33 13.5312 33.4688 14 34.125 14H37.875C38.4375 14 39 13.5312 39 12.875V9.125C39 8.5625 38.4375 8 37.875 8ZM37.875 26H34.125C33.4688 26 33 26.5625 33 27.125V30.875C33 31.5312 33.4688 32 34.125 32H37.875C38.4375 32 39 31.5312 39 30.875V27.125C39 26.5625 38.4375 26 37.875 26ZM37.875 17H34.125C33.4688 17 33 17.5625 33 18.125V21.875C33 22.5312 33.4688 23 34.125 23H37.875C38.4375 23 39 22.5312 39 21.875V18.125C39 17.5625 38.4375 17 37.875 17Z" fill="#F7654A"/>
</svg>
